HIERARCHY
ROOT root
{
  OFFSET 0 90.5966 0
  CHANNELS 6 Xposition Yposition Zposition Zrotation Xrotation Yrotation
  JOINT torso_1
  {
    OFFSET 0 4.93189 -1.1181
    CHANNELS 6 Xposition Yposition Zposition Zrotation Xrotation Yrotation
    JOINT torso_2
    {
      OFFSET 0 5.45428 1.04046
      CHANNELS 6 Xposition Yposition Zposition Zrotation Xrotation Yrotation
      JOINT torso_3
      {
        OFFSET -9.96389e-18 5.81666 0.111686
        CHANNELS 6 Xposition Yposition Zposition Zrotation Xrotation Yrotation
        JOINT torso_4
        {
          OFFSET -1.07264e-17 6.3178 -0.430704
          CHANNELS 6 Xposition Yposition Zposition Zrotation Xrotation Yrotation
          JOINT torso_5
          {
            OFFSET -1.91593e-17 7.38567 -1.4624
            CHANNELS 6 Xposition Yposition Zposition Zrotation Xrotation Yrotation
            JOINT torso_6
            {
              OFFSET -2.45986e-17 9.22288 -0.888062
              CHANNELS 6 Xposition Yposition Zposition Zrotation Xrotation Yrotation
              JOINT torso_7
              {
                OFFSET -2.82008e-17 10.2464 1.53133
                CHANNELS 6 Xposition Yposition Zposition Zrotation Xrotation Yrotation
                JOINT neck_1
                {
                  OFFSET -1.25459e-17 4.64811 0.694664
                  CHANNELS 6 Xposition Yposition Zposition Zrotation Xrotation Yrotation
                  JOINT neck_2
                  {
                    OFFSET -1.75924e-17 4.68175 0.4096
                    CHANNELS 6 Xposition Yposition Zposition Zrotation Xrotation Yrotation
                    JOINT head
                    {
                      OFFSET -1.9515e-17 4.6908 0.74295
                      CHANNELS 6 Xposition Yposition Zposition Zrotation Xrotation Yrotation
                      End Site
                      {
                        OFFSET 0 0.1 0
                      }
                    }
                  }
                }
                JOINT l_shoulder
                {
                  OFFSET 1.19736 -7.38744 7.31601
                  CHANNELS 6 Xposition Yposition Zposition Zrotation Xrotation Yrotation
                  JOINT l_up_arm
                  {
                    OFFSET 12.5803 3.15559 -3.17425
                    CHANNELS 6 Xposition Yposition Zposition Zrotation Xrotation Yrotation
                    JOINT l_low_arm
                    {
                      OFFSET 28.3639 0.0580795 0.133078
                      CHANNELS 6 Xposition Yposition Zposition Zrotation Xrotation Yrotation
                      JOINT l_hand
                      {
                        OFFSET 23.5335 0.0481878 0.110415
                        CHANNELS 6 Xposition Yposition Zposition Zrotation Xrotation Yrotation
                        End Site
                        {
                          OFFSET 0.1 0 0
                        }
                      }
                    }
                  }
                }
                JOINT r_shoulder
                {
                  OFFSET -1.19736 -7.38743 7.31591
                  CHANNELS 6 Xposition Yposition Zposition Zrotation Xrotation Yrotation
                  JOINT r_up_arm
                  {
                    OFFSET -12.5803 3.15559 -3.17425
                    CHANNELS 6 Xposition Yposition Zposition Zrotation Xrotation Yrotation
                    JOINT r_low_arm
                    {
                      OFFSET -28.3639 0.0580795 0.133078
                      CHANNELS 6 Xposition Yposition Zposition Zrotation Xrotation Yrotation
                      JOINT r_hand
                      {
                        OFFSET -23.5335 0.0481876 0.110415
                        CHANNELS 6 Xposition Yposition Zposition Zrotation Xrotation Yrotation
                        End Site
                        {
                          OFFSET -0.1 0 0
                        }
                      }
                    }
                  }
                }
              }
            }
          }
        }
      }
    }
  }
  JOINT l_up_leg
  {
    OFFSET 8.96978 -4.08401 1.97395
    CHANNELS 6 Xposition Yposition Zposition Zrotation Xrotation Yrotation
    JOINT l_low_leg
    {
      OFFSET -0.827718 -37.6515 -0.63625
      CHANNELS 6 Xposition Yposition Zposition Zrotation Xrotation Yrotation
      JOINT l_foot
      {
        OFFSET -2.25899 -39.2341 -5.87393
        CHANNELS 6 Xposition Yposition Zposition Zrotation Xrotation Yrotation
        JOINT l_toes
        {
          OFFSET 0.756579 -9.59872 12.1348
          CHANNELS 6 Xposition Yposition Zposition Zrotation Xrotation Yrotation
          End Site
          {
            OFFSET 0 0 0.1
          }
        }
      }
    }
  }
  JOINT r_up_leg
  {
    OFFSET -8.96978 -4.08401 1.97395
    CHANNELS 6 Xposition Yposition Zposition Zrotation Xrotation Yrotation
    JOINT r_low_leg
    {
      OFFSET 0.827718 -37.6515 -0.63625
      CHANNELS 6 Xposition Yposition Zposition Zrotation Xrotation Yrotation
      JOINT r_foot
      {
        OFFSET 2.25899 -39.2341 -5.87393
        CHANNELS 6 Xposition Yposition Zposition Zrotation Xrotation Yrotation
        JOINT r_toes
        {
          OFFSET -0.756579 -9.59872 12.1348
          CHANNELS 6 Xposition Yposition Zposition Zrotation Xrotation Yrotation
          End Site
          {
            OFFSET 0 0 0.1
          }
        }
      }
    }
  }
}
MOTION
Frames: 4
Frame Time: 0.020000
-21.9705 86.7359 -66.5418 9.16599 -11.2837 14.413 0 4.93189 -1.1181 -1.48001 2.16851 -0.464537 0 5.45428 1.04046 -0.838791 2.25289 -0.802329 -9.96389e-18 5.81666 0.111686 -0.424382 2.70375 -0.824809 -1.07264e-17 6.3178 -0.430704 -0.0774107 3.01898 -0.769661 -1.91593e-17 7.38567 -1.4624 0.137039 2.8685 -0.731706 -2.45986e-17 9.22288 -0.888062 0.441236 2.66036 -0.983808 -2.82008e-17 10.2464 1.53133 -0.0893883 0.894284 0.310121 -1.25459e-17 4.64811 0.694664 0.127033 3.24562 2.88799 -1.75924e-17 4.68175 0.4096 -0.462053 -3.54092 1.31156 -1.9515e-17 4.6908 0.74295 -1.70096 -4.29945 1.14407 1.19736 -7.38744 7.31601 2.01492 1.02121 1.81382 12.5803 3.15559 -3.17425 -87.2101 29.1238 -4.92186 28.3639 0.0580795 0.133078 11.6136 -8.85766 -75.179 23.5335 0.0481878 0.110415 16.3722 -22.5606 7.53988 -1.19736 -7.38743 7.31591 7.58082 4.81085 1.9371 -12.5803 3.15559 -3.17425 77.4568 -8.79791 2.44842 -28.3639 0.0580795 0.133078 -1.86111 -0.136735 9.00288 -23.5335 0.0481876 0.110415 4.83819 2.31802 1.69115 8.96978 -4.08401 1.97395 -45.157 -73.8558 -50.0305 -0.827718 -37.6515 -0.63625 -161.853 53.1153 140.868 -2.25899 -39.2341 -5.87393 0.850072 1.09641 14.5508 0.756579 -9.59872 12.1348 4.22417e-16 -7.82715e-16 2.88531e-33 -8.96978 -4.08401 1.97395 6.94093 -2.02962 18.9608 0.827718 -37.6515 -0.63625 4.37949 16.0546 -0.335618 2.25899 -39.2341 -5.87393 -13.4593 -1.44619 -14.7247 -0.756579 -9.59872 12.1348 1.87358e-16 -5.95997e-16 -1.27716e-14 
-21.9409 86.8986 -66.6918 9.20166 -10.8245 14.3419 0 4.93189 -1.1181 -1.50768 2.07712 -0.444232 0 5.45428 1.04046 -0.879091 2.18192 -0.780671 -9.96389e-18 5.81666 0.111686 -0.464531 2.65226 -0.802208 -1.07264e-17 6.3178 -0.430704 -0.113904 3.01732 -0.745375 -1.91593e-17 7.38567 -1.4624 0.108905 2.89017 -0.701036 -2.45986e-17 9.22288 -0.888062 0.430496 2.69971 -0.952234 -2.82008e-17 10.2464 1.53133 -0.0831252 0.888458 0.303267 -1.25459e-17 4.64811 0.694664 0.116355 3.16089 2.86198 -1.75924e-17 4.68175 0.4096 -0.455986 -3.49928 1.29297 -1.9515e-17 4.6908 0.74295 -1.68399 -4.06787 1.15342 1.19736 -7.38744 7.31601 2.01103 1.04151 1.75134 12.5803 3.15559 -3.17425 -87.1616 29.3444 -4.96949 28.3639 0.0580795 0.133078 11.6004 -8.80971 -74.9414 23.5335 0.0481878 0.110415 16.2221 -22.6863 7.63687 -1.19736 -7.38743 7.31591 7.65622 4.77973 1.97378 -12.5803 3.15559 -3.17425 77.4673 -8.56588 2.42417 -28.3639 0.0580795 0.133078 -1.86818 -0.13782 9.03736 -23.5335 0.0481876 0.110415 4.86006 2.04757 1.62823 8.96978 -4.08401 1.97395 -44.7118 -73.6986 -49.8487 -0.827718 -37.6515 -0.63625 -162.87 51.7047 141.648 -2.25899 -39.2341 -5.87393 0.349455 2.70954 14.4971 0.756579 -9.59872 12.1348 3.62748e-17 -7.94782e-16 1.2067e-17 -8.96978 -4.08401 1.97395 6.66812 -2.25219 19.213 0.827718 -37.6515 -0.63625 4.19935 15.4217 -0.297823 2.25899 -39.2341 -5.87393 -13.0628 -1.09593 -14.6991 -0.756579 -9.59872 12.1348 -1.73193e-15 -5.11885e-16 -1.26995e-14 
-21.907 87.0775 -66.853 9.24171 -10.1807 14.2967 0 4.93189 -1.1181 -1.54523 1.8989 -0.417699 0 5.45428 1.04046 -0.929052 2.04756 -0.752884 -9.96389e-18 5.81666 0.111686 -0.511863 2.5703 -0.774589 -1.07264e-17 6.3178 -0.430704 -0.155824 3.04045 -0.716843 -1.91593e-17 7.38567 -1.4624 0.0766694 2.97215 -0.664846 -2.45986e-17 9.22288 -0.888062 0.417268 2.81546 -0.915494 -2.82008e-17 10.2464 1.53133 -0.0759601 0.872508 0.294704 -1.25459e-17 4.64811 0.694664 0.101996 3.12428 2.86787 -1.75924e-17 4.68175 0.4096 -0.430803 -3.51143 1.28997 -1.9515e-17 4.6908 0.74295 -1.73158 -4.03096 1.09381 1.19736 -7.38744 7.31601 2.05311 1.02069 1.74242 12.5803 3.15559 -3.17425 -87.114 29.6127 -5.01265 28.3639 0.0580795 0.133078 11.5976 -8.79966 -74.8917 23.5335 0.0481878 0.110415 15.9125 -22.7544 7.75739 -1.19736 -7.38743 7.31591 7.69605 4.67832 1.96148 -12.5803 3.15559 -3.17425 77.5325 -8.25901 2.43653 -28.3639 0.0580795 0.133078 -1.88291 -0.140095 9.1092 -23.5335 0.0481876 0.110415 4.88681 1.78142 1.62112 8.96978 -4.08401 1.97395 -44.7145 -73.6664 -50.271 -0.827718 -37.6515 -0.63625 -163.638 50.573 142.225 -2.25899 -39.2341 -5.87393 -0.0652229 4.25249 14.4584 0.756579 -9.59872 12.1348 4.10991e-16 -7.83072e-16 3.57084e-19 -8.96978 -4.08401 1.97395 6.32232 -2.61664 19.3327 0.827718 -37.6515 -0.63625 3.99927 14.7145 -0.258168 2.25899 -39.2341 -5.87393 -12.6283 -0.755842 -14.6809 -0.756579 -9.59872 12.1348 5.27794e-16 -6.17988e-16 -1.27939e-14 
-21.8709 87.2479 -67.0452 9.23457 -9.16912 14.2746 0 4.93189 -1.1181 -1.59973 1.57693 -0.392159 0 5.45428 1.04046 -0.994069 1.79645 -0.728721 -9.96389e-18 5.81666 0.111686 -0.56911 2.41001 -0.751489 -1.07264e-17 6.3178 -0.430704 -0.203425 3.05568 -0.693948 -1.91593e-17 7.38567 -1.4624 0.0396889 3.09319 -0.632116 -2.45986e-17 9.22288 -0.888062 0.399059 2.98497 -0.884576 -2.82008e-17 10.2464 1.53133 -0.0677055 0.845176 0.284978 -1.25459e-17 4.64811 0.694664 0.086823 3.0709 2.9031 -1.75924e-17 4.68175 0.4096 -0.392129 -3.54127 1.30025 -1.9515e-17 4.6908 0.74295 -1.80514 -4.11048 1.01744 1.19736 -7.38744 7.31601 2.10394 0.973639 1.76725 12.5803 3.15559 -3.17425 -87.0332 29.9288 -5.03958 28.3639 0.0580795 0.133078 11.6038 -8.8219 -75.0019 23.5335 0.0481878 0.110415 15.621 -22.7697 7.8571 -1.19736 -7.38743 7.31591 7.74054 4.53373 1.92262 -12.5803 3.15559 -3.17425 77.6482 -7.99759 2.4827 -28.3639 0.0580795 0.133078 -1.90688 -0.143837 9.22608 -23.5335 0.0481876 0.110415 4.89456 1.63335 1.66471 8.96978 -4.08401 1.97395 -45.6798 -74.0114 -51.8144 -0.827718 -37.6515 -0.63625 -164.207 49.6941 142.646 -2.25899 -39.2341 -5.87393 -0.331229 5.60094 14.4283 0.756579 -9.59872 12.1348 8.08367e-16 -7.58593e-16 -2.41218e-17 -8.96978 -4.08401 1.97395 5.91809 -3.43009 19.2945 0.827718 -37.6515 -0.63625 3.82949 14.1111 -0.226451 2.25899 -39.2341 -5.87393 -12.1975 -0.5037 -14.6818 -0.756579 -9.59872 12.1348 -1.33339e-15 -5.36776e-16 -1.27123e-14 
